<?xml version="1.0" standalone="no"?>
<!DOCTYPE svg PUBLIC "-//W3C//DTD SVG 20010904//EN"
 "http://www.w3.org/TR/2001/REC-SVG-20010904/DTD/svg10.dtd">
<svg version="1.0" xmlns="http://www.w3.org/2000/svg" viewBox="0 0 269.25 269.25"
 width="1000.000000pt" height="1000.000000pt"
 preserveAspectRatio="xMidYMid meet">
<metadata>
Created by potrace 1.11, written by Peter Selinger 2001-2013
</metadata>
<g
fill="#000000" stroke="none">

  <defs>
    <style>
      .cls-1 {
        fill: #0055a2;
      }

      .cls-2 {
        fill: #23c0cc;
      }
    </style>
  </defs>
  <g id="Logo">
    <g>
      <path class="cls-2" d="m265.58,10.17c-.63-2.93-3.73-5.97-6.66-6.59-16.79-3.57-29.99-3.57-43.13-3.57-40.71,0-69.2,16.34-91.12,40.66-15.01,16.62-6.78,7.94-74.45,123.21-3.9,6.62-2.87,15.09,2.55,20.51l32.09,32.1c5.43,5.43,13.91,6.45,20.52,2.55,114.83-67.37,106.53-59.53,123.14-74.57,24.3-21.98,40.72-50.48,40.72-90.5.02-13.68-.04-26.98-3.66-43.79Zm-64.15,78.18c-11.57,0-20.56-9.4-20.56-21.04s8.99-21.04,20.56-21.04,20.56,9.4,20.56,21.04-8.47,21.04-20.56,21.04Z"/>
      <path class="cls-1" d="m27.34,81.25L1.31,133.15c-.79,1.79-1.25,3.73-1.31,5.68,0,6.97,5.65,12.62,12.15,12.62h44.86c24.52-41.78,37.94-65.47,46.02-79.67,1.29-1.47,1.92-3,2.76-4.47h-55.91c-8.61,0-18.73,6.26-22.54,13.94Zm170.1,84.35c-14.15,8.09-37.84,21.54-79.66,46.16l-.47,44.87c0,6.97,5.65,12.62,12.15,12.62,1.97-.07,3.84-.53,5.62-1.31l51.9-25.97c7.69-3.88,13.95-13.94,13.95-22.55l.03-56.11c-.52.82-2.05,1.45-3.52,2.29Z"/>
    </g>
  </g>

</g>
</svg>
